<mxfile host="app.diagrams.net" modified="2024-04-26T05:53:17.016Z" agent="Mozilla/5.0 (X11; Linux x86_64) AppleWebKit/537.36 (KHTML, like Gecko) Chrome/123.0.0.0 Safari/537.36 Edg/123.0.0.0" etag="05zj5XSUxLncgfZaJc6j" version="24.0.7" type="device">
  <diagram name="Page-1" id="XWubRPZp4bSo6unFrCVo">
    <mxGraphModel dx="1216" dy="818" grid="1" gridSize="10" guides="1" tooltips="1" connect="1" arrows="1" fold="1" page="1" pageScale="1" pageWidth="850" pageHeight="1100" math="0" shadow="0">
      <root>
        <mxCell id="0" />
        <mxCell id="1" parent="0" />
        <mxCell id="FAcZi72-e0VQWcLL917w-6" style="edgeStyle=orthogonalEdgeStyle;rounded=0;orthogonalLoop=1;jettySize=auto;html=1;exitX=1;exitY=0.5;exitDx=0;exitDy=0;entryX=0;entryY=0.5;entryDx=0;entryDy=0;" edge="1" parent="1" source="FAcZi72-e0VQWcLL917w-1" target="FAcZi72-e0VQWcLL917w-3">
          <mxGeometry relative="1" as="geometry" />
        </mxCell>
        <mxCell id="FAcZi72-e0VQWcLL917w-1" value="RGB Image" style="rounded=0;whiteSpace=wrap;html=1;fillColor=#d5e8d4;strokeColor=#82b366;" vertex="1" parent="1">
          <mxGeometry x="80" y="190" width="120" height="60" as="geometry" />
        </mxCell>
        <mxCell id="FAcZi72-e0VQWcLL917w-7" style="edgeStyle=orthogonalEdgeStyle;rounded=0;orthogonalLoop=1;jettySize=auto;html=1;exitX=1;exitY=0.5;exitDx=0;exitDy=0;entryX=0;entryY=0.5;entryDx=0;entryDy=0;" edge="1" parent="1" source="FAcZi72-e0VQWcLL917w-2" target="FAcZi72-e0VQWcLL917w-3">
          <mxGeometry relative="1" as="geometry" />
        </mxCell>
        <mxCell id="FAcZi72-e0VQWcLL917w-2" value="Depth Image" style="rounded=0;whiteSpace=wrap;html=1;fillColor=#dae8fc;strokeColor=#6c8ebf;" vertex="1" parent="1">
          <mxGeometry x="80" y="330" width="120" height="60" as="geometry" />
        </mxCell>
        <mxCell id="FAcZi72-e0VQWcLL917w-8" style="edgeStyle=orthogonalEdgeStyle;rounded=0;orthogonalLoop=1;jettySize=auto;html=1;exitX=1;exitY=0.5;exitDx=0;exitDy=0;entryX=0;entryY=0.5;entryDx=0;entryDy=0;" edge="1" parent="1" source="FAcZi72-e0VQWcLL917w-3" target="FAcZi72-e0VQWcLL917w-4">
          <mxGeometry relative="1" as="geometry" />
        </mxCell>
        <mxCell id="FAcZi72-e0VQWcLL917w-3" value="Deep Learning Model for Object Detection" style="rounded=0;whiteSpace=wrap;html=1;fillColor=#e1d5e7;strokeColor=#9673a6;" vertex="1" parent="1">
          <mxGeometry x="260" y="250" width="180" height="70" as="geometry" />
        </mxCell>
        <mxCell id="FAcZi72-e0VQWcLL917w-9" style="edgeStyle=orthogonalEdgeStyle;rounded=0;orthogonalLoop=1;jettySize=auto;html=1;exitX=1;exitY=0.5;exitDx=0;exitDy=0;entryX=0;entryY=0.5;entryDx=0;entryDy=0;" edge="1" parent="1" source="FAcZi72-e0VQWcLL917w-4" target="FAcZi72-e0VQWcLL917w-5">
          <mxGeometry relative="1" as="geometry" />
        </mxCell>
        <mxCell id="FAcZi72-e0VQWcLL917w-4" value="DWA with the shortest path algorithm" style="rounded=0;whiteSpace=wrap;html=1;fillColor=#ffe6cc;strokeColor=#d79b00;" vertex="1" parent="1">
          <mxGeometry x="490" y="250" width="120" height="70" as="geometry" />
        </mxCell>
        <mxCell id="FAcZi72-e0VQWcLL917w-5" value="Final Path" style="rounded=0;whiteSpace=wrap;html=1;" vertex="1" parent="1">
          <mxGeometry x="640" y="255" width="120" height="60" as="geometry" />
        </mxCell>
      </root>
    </mxGraphModel>
  </diagram>
</mxfile>
